<svg xmlns="http://www.w3.org/2000/svg" viewBox="0 0 24 24" version="1.1"><path d="M 12,2 C 9.88,2 7.93,2.65 6.31,3.77 L 9.28,6.74 C 9.75,5.71 10.79,5 12,5 c 1.66,0 3,1.34 3,3 0,1.2 -0.72,2.24 -1.75,2.71 l 3.55,3.55 c 0.44,0.29 0.79,0.62 0.99,0.99 l 2.43,2.43 C 21.34,16.06 22,14.11 22,12 22,6.48 17.52,2 12,2 Z M 2.26,2.26 1,3.53 3.77,6.31 C 2.66,7.93 2,9.88 2,12 c 0,5.52 4.48,10 10,10 2.11,0 4.06,-0.67 5.68,-1.78 l 2.78,2.78 1.27,-1.27 z m 8.25,10.79 5.14,5.14 c -1.08,0.63 -2.32,1 -3.65,1 -2.5,0 -4.71,-1.27 -6,-3.21 0.02,-1.57 2.48,-2.57 4.51,-2.93 z"/></svg>
