<?xml version="1.0" encoding="UTF-8" standalone="no"?>
<svg
   xmlns:dc="http://purl.org/dc/elements/1.1/"
   xmlns:cc="http://creativecommons.org/ns#"
   xmlns:rdf="http://www.w3.org/1999/02/22-rdf-syntax-ns#"
   xmlns:svg="http://www.w3.org/2000/svg"
   xmlns="http://www.w3.org/2000/svg"
   xmlns:sodipodi="http://sodipodi.sourceforge.net/DTD/sodipodi-0.dtd"
   xmlns:inkscape="http://www.inkscape.org/namespaces/inkscape"
   viewBox="0 0 24 24"
   version="1.1"
   id="svg4"
   sodipodi:docname="md-qr-code-off.svg"
   inkscape:version="0.92.4 5da689c313, 2019-01-14">
  <metadata
     id="metadata10">
    <rdf:RDF>
      <cc:Work
         rdf:about="">
        <dc:format>image/svg+xml</dc:format>
        <dc:type
           rdf:resource="http://purl.org/dc/dcmitype/StillImage" />
      </cc:Work>
    </rdf:RDF>
  </metadata>
  <defs
     id="defs8" />
  <sodipodi:namedview
     pagecolor="#ffffff"
     bordercolor="#666666"
     borderopacity="1"
     objecttolerance="10"
     gridtolerance="10"
     guidetolerance="10"
     inkscape:pageopacity="0"
     inkscape:pageshadow="2"
     inkscape:window-width="1362"
     inkscape:window-height="729"
     id="namedview6"
     showgrid="false"
     inkscape:zoom="19.666667"
     inkscape:cx="12.254134"
     inkscape:cy="11.067441"
     inkscape:window-x="0"
     inkscape:window-y="18"
     inkscape:window-maximized="0"
     inkscape:current-layer="svg4" />
  <path
     d="M 2.2695312,2.2695312 1,3.5390625 l 2,2 V 11 h 5.4609375 l 2.0000005,2 H 3 v 6 c 0,1.1 0.89,2 2,2 h 6 v -7.460938 l 2,2 V 17 h 1.460938 l 2,2 H 13 v 2 h 4 V 19.539062 L 20.460938,23 21.730469,21.730469 C 15.24349,15.24349 8.7565105,8.7565105 2.2695312,2.2695312 Z M 5.5390625,3 l 2,2 H 9 v 1.4609375 l 2,2 V 3 Z M 13,3 v 7.460938 L 13.539062,11 H 21 V 5 C 21,3.9 20.1,3 19,3 Z m 2,2 h 4 v 4 h -4 z m 1,1 v 2 h 2 V 6 Z M 5,7.5390625 6.4609375,9 H 5 Z M 15.539062,13 17,14.460938 V 13 Z M 19,13 v 3.460938 L 19.539062,17 H 21 V 13 Z M 5,15 h 4 v 4 H 5 Z m 1,1 v 2 h 2 v -2 z"
     id="path2"
     inkscape:connector-curvature="0"
     sodipodi:nodetypes="cccccccssccccccccccccccccccccccccssccccccccccccccccccccccccccccccccccc" />
</svg>
